<svg width="21" height="36" viewBox="0 0 21 36" fill="none" xmlns="http://www.w3.org/2000/svg">
<path d="M4.73085 35.0112C3.692 36.0516 2.00768 36.0516 0.968826 35.0112C-0.0700301 33.9707 -0.0700299 32.2838 0.968827 31.2433L16.0169 16.1719C17.0558 15.1314 18.7401 15.1314 19.779 16.1719C20.8178 17.2123 20.8178 18.8992 19.779 19.9397L4.73085 35.0112Z" fill="#D2DBFF"/>
<path d="M0.968829 4.86825C-0.0700274 3.82778 -0.0700273 2.14086 0.968829 1.10039C2.00768 0.0599235 3.692 0.0599236 4.73086 1.10039L19.779 16.1719C20.8178 17.2123 20.8178 18.8992 19.779 19.9397C18.7401 20.9802 17.0558 20.9802 16.0169 19.9397L0.968829 4.86825Z" fill="#D2DBFF"/>
</svg>
