<svg width="24" height="24" viewBox="0 0 24 24" fill="none" xmlns="http://www.w3.org/2000/svg">
<path d="M11.2902 15.29L6.70022 10.7C6.60764 10.6074 6.5342 10.4975 6.4841 10.3765C6.43399 10.2556 6.4082 10.1259 6.4082 9.995C6.4082 9.86407 6.43399 9.73442 6.4841 9.61346C6.5342 9.49249 6.60764 9.38258 6.70022 9.29C6.79281 9.19742 6.90272 9.12398 7.02368 9.07387C7.14464 9.02377 7.27429 8.99798 7.40522 8.99798C7.53615 8.99798 7.6658 9.02377 7.78677 9.07387C7.90773 9.12398 8.01764 9.19742 8.11022 9.29L12.0002 13.17L15.8802 9.29C15.9728 9.19742 16.0827 9.12398 16.2037 9.07387C16.3246 9.02377 16.4543 8.99798 16.5852 8.99798C16.7162 8.99798 16.8458 9.02377 16.9668 9.07387C17.0877 9.12398 17.1976 9.19742 17.2902 9.29C17.3828 9.38258 17.4562 9.49249 17.5063 9.61346C17.5565 9.73442 17.5822 9.86407 17.5822 9.995C17.5822 10.1259 17.5565 10.2556 17.5063 10.3765C17.4562 10.4975 17.3828 10.6074 17.2902 10.7L12.7002 15.29C12.6077 15.3827 12.4978 15.4563 12.3768 15.5064C12.2559 15.5566 12.1262 15.5824 11.9952 15.5824C11.8643 15.5824 11.7346 15.5566 11.6136 15.5064C11.4926 15.4563 11.3827 15.3827 11.2902 15.29Z" fill="#D2DBFF"/>
</svg>
