<svg width="25" height="24" viewBox="0 0 25 24" fill="none" xmlns="http://www.w3.org/2000/svg">
<path d="M5.67481 3.25003C5.67447 3.91307 5.41076 4.54882 4.94169 5.01743C4.47261 5.48604 3.8366 5.74911 3.17356 5.74878C2.51051 5.74845 1.87476 5.48474 1.40615 5.01566C0.937547 4.54659 0.674473 3.91057 0.674805 3.24753C0.675137 2.58449 0.938846 1.94873 1.40792 1.48013C1.877 1.01152 2.51301 0.748448 3.17606 0.74878C3.8391 0.749111 4.47485 1.01282 4.94346 1.4819C5.41206 1.95097 5.67514 2.58699 5.67481 3.25003ZM5.74981 7.60003H0.749805V23.25H5.74981V7.60003ZM13.6498 7.60003H8.67481V23.25H13.5998V15.0375C13.5998 10.4625 19.5623 10.0375 19.5623 15.0375V23.25H24.4998V13.3375C24.4998 5.62503 15.6748 5.91253 13.5998 9.70003L13.6498 7.60003Z" fill="#D2DBFF"/>
</svg>
