<svg width="45" height="44" viewBox="0 0 45 44" fill="none" xmlns="http://www.w3.org/2000/svg">
<path d="M25.3827 4.8125C17.5374 4.8125 11.1817 11.1173 11.1817 18.8925C11.1776 21.454 11.8818 23.9675 13.2177 26.16L6.33264 32.9866L6.3566 33.0103C5.62172 33.7077 5.17041 34.6977 5.17041 35.8167C5.16997 37.9784 6.90688 39.6689 9.08489 39.6684C10.1974 39.668 11.1924 39.2267 11.9024 38.5086L11.9197 38.5257L19.0235 31.4818C20.9968 32.4641 23.1747 32.9747 25.3827 32.9725C33.2286 32.9725 39.5829 26.6686 39.5829 18.8925C39.5829 11.1173 33.2281 4.8125 25.3827 4.8125ZM25.4688 27.436C20.5652 27.436 16.593 23.4962 16.593 18.636C16.593 13.7766 20.5652 9.83598 25.4688 9.83598C30.3725 9.83598 34.3438 13.7762 34.3438 18.636C34.3442 23.4962 30.3725 27.436 25.4688 27.436Z" fill="#D2DBFF"/>
</svg>
