<svg width="21" height="36" viewBox="0 0 21 36" fill="none" xmlns="http://www.w3.org/2000/svg">
<path d="M15.9112 1.10042C16.9501 0.0599521 18.6344 0.0599517 19.6733 1.10042C20.7121 2.14088 20.7121 3.82781 19.6733 4.86828L4.62515 19.9397C3.5863 20.9802 1.90198 20.9802 0.863126 19.9397C-0.175729 18.8993 -0.175729 17.2123 0.863126 16.1719L15.9112 1.10042Z" fill="#D2DBFF"/>
<path d="M19.6733 31.2433C20.7121 32.2838 20.7121 33.9707 19.6733 35.0112C18.6344 36.0516 16.9501 36.0516 15.9112 35.0112L0.863126 19.9397C-0.175729 18.8993 -0.175729 17.2123 0.863126 16.1719C1.90198 15.1314 3.5863 15.1314 4.62515 16.1719L19.6733 31.2433Z" fill="#D2DBFF"/>
</svg>
